Coordinates
version=1
nRows=8
nColumns=40
inDegrees=yes

Units are S.I. units (second, meters, Newtons, ...)
If the header above contains a line with 'inDegrees', this indicates whether rotational values are in degrees (yes) or radians (no).

endheader
time	pelvis_tilt	pelvis_list	pelvis_rotation	pelvis_tx	pelvis_ty	pelvis_tz	hip_flexion_r	hip_adduction_r	hip_rotation_r	knee_angle_r	knee_angle_r_beta	ankle_angle_r	subtalar_angle_r	mtp_angle_r	hip_flexion_l	hip_adduction_l	hip_rotation_l	knee_angle_l	knee_angle_l_beta	ankle_angle_l	subtalar_angle_l	mtp_angle_l	lumbar_extension	lumbar_bending	lumbar_rotation	arm_flex_r	arm_add_r	arm_rot_r	elbow_flex_r	pro_sup_r	wrist_flex_r	wrist_dev_r	arm_flex_l	arm_add_l	arm_rot_l	elbow_flex_l	pro_sup_l	wrist_flex_l	wrist_dev_l
      2.42000000	    -20.34423359	     -1.72827254	     -2.80987856	      0.14098765	      0.50732415	     -1.19108652	     98.69305226	    -42.94589666	     11.26295378	    108.12610980	      1.88715662	     28.74700993	     11.47982795	      0.00000000	    106.29188953	    -48.56369660	     18.64319318	    108.08988905	      1.88652445	     27.49889272	     22.61063627	      0.00000000	    -16.68948548	      3.77254363	      2.61917183	     44.99992433	    -14.99999999	     44.99992433	     75.00017585	     45.00000026	      0.00000000	      0.00000000	     44.99992433	    -14.99999999	     44.99992433	     75.00017585	     45.00000026	      0.00000000	      0.00000000
      2.42500000	    -20.40192071	     -1.61530473	     -2.77264416	      0.14032617	      0.51256181	     -1.19099539	     98.03177168	    -42.78589055	     10.66757007	    107.33897538	      1.87341854	     28.08582841	     10.52424325	      0.00000000	    105.20409886	    -48.48799067	     17.47851726	    107.29807233	      1.87270464	     26.98650436	     21.69029630	      0.00000000	    -16.73483371	      3.62692820	      2.60286394	     44.99992433	    -14.99999999	     44.99992433	     75.00017585	     45.00000026	      0.00000000	      0.00000000	     44.99992433	    -14.99999999	     44.99992433	     75.00017585	     45.00000026	      0.00000000	      0.00000000
      2.43000000	    -20.58446322	     -1.48596611	     -2.75919131	      0.14001006	      0.51717976	     -1.19080667	     97.56168777	    -42.68230031	     10.15731379	    106.63875260	      1.86119734	     27.80355959	     10.24078685	      0.00000000	    104.29105123	    -48.48920268	     16.41699262	    106.56229084	      1.85986283	     26.82514508	     21.46146852	      0.00000000	    -16.51909350	      3.44849157	      2.58988423	     44.99992433	    -14.99999999	     44.99992433	     75.00017585	     45.00000026	      0.00000000	      0.00000000	     44.99992433	    -14.99999999	     44.99992433	     75.00017585	     45.00000026	      0.00000000	      0.00000000
      2.43500000	    -21.06317952	     -1.48942441	     -2.77398040	      0.13971854	      0.52075556	     -1.19064482	     97.34050922	    -42.56298945	      9.53570680	    106.01425178	      1.85029775	     27.65886465	     10.29893207	      0.00000000	    104.06079702	    -48.47541931	     15.75839055	    105.91394065	      1.84854699	     26.65517269	     21.49460448	      0.00000000	    -15.87293213	      3.46223967	      2.60017180	     44.99992433	    -14.99999999	     44.99992433	     75.00017585	     45.00000026	      0.00000000	      0.00000000	     44.99992433	    -14.99999999	     44.99992433	     75.00017585	     45.00000026	      0.00000000	      0.00000000
      2.44000000	    -21.18247817	     -1.41393097	     -2.76857928	      0.13934330	      0.52576004	     -1.19050165	     96.69315319	    -42.41534174	      8.91572853	    105.23777569	      1.83674568	     27.19235837	      9.74041201	      0.00000000	    103.10714625	    -48.43853554	     14.73838637	    105.12498246	      1.83477707	     26.27327149	     20.93969781	      0.00000000	    -15.75772243	      3.36756142	      2.60228008	     44.99992433	    -14.99999999	     44.99992433	     75.00017585	     45.00000026	      0.00000000	      0.00000000	     44.99992433	    -14.99999999	     44.99992433	     75.00017585	     45.00000026	      0.00000000	      0.00000000
      2.44500000	    -21.65219152	     -1.41809089	     -2.78468391	      0.13915956	      0.52937843	     -1.19032256	     96.44078383	    -42.30459906	      8.27905393	    104.59734331	      1.82556803	     27.04532048	      9.79612338	      0.00000000	    102.85154754	    -48.42264119	     14.09158950	    104.47038788	      1.82335224	     26.10427253	     20.97974795	      0.00000000	    -15.08515658	      3.36565423	      2.61549282	     44.99992433	    -14.99999999	     44.99992433	     75.00017585	     45.00000026	      0.00000000	      0.00000000	     44.99992433	    -14.99999999	     44.99992433	     75.00017585	     45.00000026	      0.00000000	      0.00000000
      2.45000000	    -22.09449158	     -1.42541611	     -2.80431259	      0.13886526	      0.53324763	     -1.19016009	     96.12790022	    -42.15101362	      7.63832944	    103.89085119	      1.81323742	     26.83543257	      9.76626287	      0.00000000	    102.52014743	    -48.37552157	     13.41873639	    103.75982121	      1.81095051	     25.86979140	     20.93077677	      0.00000000	    -14.47854067	      3.37710765	      2.62696512	     44.99992433	    -14.99999999	     44.99992433	     75.00017585	     45.00000026	      0.00000000	      0.00000000	     44.99992433	    -14.99999999	     44.99992433	     75.00017585	     45.00000026	      0.00000000	      0.00000000
      2.45500000	    -21.98735721	     -1.36978523	     -2.80674583	      0.13867098	      0.53904059	     -1.19002474	     95.15012102	    -42.02099197	      6.90479222	    103.02508607	      1.79812696	     26.24484350	      8.97121140	      0.00000000	    101.25633295	    -48.36909707	     12.33219898	    102.90574196	      1.79604402	     25.39844559	     20.20937968	      0.00000000	    -14.65753562	      3.28559865	      2.64190303	     44.99992433	    -14.99999999	     44.99992433	     75.00017585	     45.00000026	      0.00000000	      0.00000000	     44.99992433	    -14.99999999	     44.99992433	     75.00017585	     45.00000026	      0.00000000	      0.00000000
